# xmcd
#
# Track frame offsets: 
#        150
#        15951
#        32929
#        48322
#        65492
#        84827
#        96649
#        115673
#        132602
#        146782
#        162424
#        185973
#        206746
#
# Disc length: 3032 seconds
#
# Revision: 0
# Processed by: cddbd v1.5.2PL0 Copyright (c) Steve Scherf et al.
# Submitted via: ExactAudioCopy v1.0b3
#
DISCID=c00bd60d
DTITLE=Robby Armstrong - Robby Armstrong
DYEAR=2013
DGENRE=Country
TTITLE0=Better Me
TTITLE1=One Life
TTITLE2=Birthday Happy
TTITLE3=Smokin' And Drinkin'
TTITLE4=Suspicions
TTITLE5=Rodeo
TTITLE6=Your Eyes
TTITLE7=The First
TTITLE8=Married Man
TTITLE9=As Long As You're Happy
TTITLE10=Guitars And Babies
TTITLE11=Hard Way To Go
TTITLE12=Cool Cool Country
EXTD=
EXTT0=
EXTT1=
EXTT2=
EXTT3=
EXTT4=
EXTT5=
EXTT6=
EXTT7=
EXTT8=
EXTT9=
EXTT10=
EXTT11=
EXTT12=
PLAYORDER=
